<?xml version="1.0" encoding="UTF-8"?>
<svg id="Livello_2" data-name="Livello 2" xmlns="http://www.w3.org/2000/svg" xmlns:xlink="http://www.w3.org/1999/xlink" viewBox="0 0 1026 274.7">
  <defs>
    <style>
      .cls-1 {
        fill: #e1e1e0;
      }

      .cls-2 {
        fill: #fa824c;
      }

      .cls-3 {
        fill: #2e6be6;
      }

      .cls-4 {
        fill: #05a245;
      }

      .cls-5 {
        fill: #fff;
      }

      .cls-6 {
        fill: #1a1659;
      }

      .cls-7 {
        fill: url(#Sfumatura_senza_nome_6);
      }

      .cls-8 {
        fill: url(#Sfumatura_senza_nome_7);
      }

      .cls-9 {
        fill: url(#Sfumatura_senza_nome_5);
      }

      .cls-10 {
        fill: #d9062d;
      }
    </style>
    <linearGradient id="Sfumatura_senza_nome_7" data-name="Sfumatura senza nome 7" x1="923.1" y1="126.4" x2="967.57" y2="126.4" gradientUnits="userSpaceOnUse">
      <stop offset="0" stop-color="#32eafd"/>
      <stop offset=".04" stop-color="#2ee1fd"/>
      <stop offset=".29" stop-color="#1bb2fd"/>
      <stop offset=".51" stop-color="#0d8ffd"/>
      <stop offset=".69" stop-color="#057afd"/>
      <stop offset=".81" stop-color="#0273fd"/>
    </linearGradient>
    <linearGradient id="Sfumatura_senza_nome_6" data-name="Sfumatura senza nome 6" x1="978.28" y1="17.7" x2="938.62" y2="126.66" gradientUnits="userSpaceOnUse">
      <stop offset="0" stop-color="#32eafd"/>
      <stop offset=".04" stop-color="#2ee1fd"/>
      <stop offset=".29" stop-color="#1bb2fd"/>
      <stop offset=".51" stop-color="#0d8ffd"/>
      <stop offset=".68" stop-color="#057afd"/>
      <stop offset=".8" stop-color="#0273fd"/>
    </linearGradient>
    <linearGradient id="Sfumatura_senza_nome_5" data-name="Sfumatura senza nome 5" x1="838.81" y1="298.79" x2="1023.95" y2="191.9" gradientUnits="userSpaceOnUse">
      <stop offset=".04" stop-color="#038482"/>
      <stop offset=".27" stop-color="#077f9a"/>
      <stop offset=".47" stop-color="#0a7dab"/>
      <stop offset=".68" stop-color="#0f94c4"/>
      <stop offset=".92" stop-color="#16b4e7"/>
    </linearGradient>
  </defs>
  <g id="FC_logo" data-name="FC logo">
    <path class="cls-3" d="M196.79,148.2l-2-6.6h-21.6l-2,6.6c-.4,1.2-1.5,2.1-2.8,2.1h-14c-1.6,0-2.9-1.3-2.9-2.9s0-.7.2-1l20.4-55.8c.4-1.1,1.5-1.9,2.7-1.9h18.9c1.2,0,2.3.8,2.7,1.9l20.4,55.8c.6,1.5-.2,3.1-1.7,3.7-.3.1-.7.2-1,.2h-14.7c-1.3,0-2.4-.8-2.8-2.1M177.29,127.7h13.4l-6.4-21.9h-.4l-6.6,21.9Z"/>
    <path class="cls-3" d="M398.38,148.2l-2-6.6h-21.6l-2,6.6c-.4,1.2-1.5,2.1-2.8,2.1h-14c-1.6,0-2.9-1.3-2.9-2.9,0-.4,0-.7.2-1l20.4-55.8c.4-1.1,1.5-1.9,2.7-1.9h19c1.2,0,2.3.8,2.7,1.9l20.4,55.8c.5,1.5-.2,3.1-1.7,3.7-.3.1-.7.2-1,.2h-14.7c-1.3,0-2.4-.8-2.8-2.1M378.99,127.7h13.3l-6.4-21.9h-.4l-6.5,21.9Z"/>
    <path class="cls-3" d="M534.89,148.2l-2-6.6h-21.6l-2,6.6c-.4,1.2-1.5,2.1-2.8,2.1h-14c-1.6,0-2.9-1.3-2.9-2.9s0-.7.2-1l20.4-55.8c.4-1.1,1.5-1.9,2.7-1.9h19c1.2,0,2.3.8,2.7,1.9l20.4,55.8c.5,1.5-.2,3.1-1.7,3.7-.3.1-.7.2-1,.2h-14.7c-1.3,0-2.4-.8-2.8-2.1M515.39,127.7h13.3l-6.5-21.9h-.4l-6.5,21.9h.1Z"/>
    <path class="cls-3" d="M260.88,140.3l-17.3-19.9v27.1c0,1.6-1.3,2.9-2.8,2.9h-12.5c-1.6,0-2.9-1.3-2.9-2.9h0v-55.9c0-1.6,1.3-2.8,2.9-2.8h13.1c.9,0,1.6.4,2.2,1l25,29.3v-27.5c0-1.6,1.3-2.8,2.9-2.8h12.5c1.6,0,2.9,1.3,2.9,2.8v55.9c0,1.6-1.3,2.9-2.9,2.9h-1.3c-8.3,0-16.3-3.6-21.7-9.9"/>
    <path class="cls-3" d="M334.99,104.4v43c0,1.6-1.3,2.9-2.9,2.9h-14c-1.6,0-2.9-1.3-2.9-2.9v-42.9h-17.4c-1.6,0-2.9-1.3-2.9-2.9h0v-10c0-1.6,1.3-2.9,2.9-2.9h54.4c1.6,0,2.9,1.3,2.9,2.9v10c0,1.6-1.3,2.9-2.9,2.9h-17.2v-.1Z"/>
    <path class="cls-3" d="M475.88,94.4c4.6,4,7.3,9.5,7.8,16.5.1,1.6-1,3-2.6,3.1h-13.4c-1.4,0-2.6-1.1-2.8-2.5-.3-2.2-1.2-4.3-2.6-6-1.9-2.1-4.5-3.1-8-3.1-4,0-6.9,1.2-8.8,3.8-1.9,2.5-2.8,6-2.8,10.5v5.7c0,4.4.9,7.9,2.8,10.4s4.8,3.8,8.6,3.8,6.7-1,8.7-2.9c1.5-1.6,2.5-3.6,2.8-5.8.2-1.4,1.4-2.5,2.8-2.5h12.6c1.6,0,2.9,1.3,2.9,2.9s0,.1,0,.2c-.6,6.9-3.1,12.3-7.6,16.3-5.2,4.5-12.5,6.7-21.9,6.7-10.5,0-18.5-2.7-23.9-8.1-5.4-5.4-8.1-13.3-8.1-23.8s2.7-18.4,8.1-23.8,13.4-8.1,23.9-8.1,16.4,2.3,21.7,6.8"/>
    <path class="cls-3" d="M672.69,94.4c4.7,4,7.3,9.5,7.8,16.5.1,1.6-1.1,3-2.6,3.1h-13.4c-1.4,0-2.6-1.1-2.8-2.5-.3-2.2-1.2-4.3-2.7-6-1.9-2.1-4.5-3.1-8-3.1-4,0-6.9,1.2-8.8,3.8-1.9,2.5-2.8,6-2.8,10.5v5.7c0,4.4.9,7.9,2.8,10.4s4.8,3.8,8.6,3.8,6.7-1,8.7-2.9c1.5-1.6,2.5-3.6,2.8-5.8.2-1.4,1.4-2.5,2.8-2.5h12.6c1.6,0,2.9,1.3,2.9,2.9s0,.1,0,.2c-.6,6.9-3.1,12.3-7.6,16.3-5.2,4.5-12.5,6.7-21.9,6.7-10.5,0-18.5-2.7-23.9-8.1-5.4-5.4-8.1-13.3-8.1-23.8s2.7-18.4,8.1-23.8c5.4-5.4,13.4-8.1,23.9-8.1s16.4,2.3,21.7,6.8"/>
    <path class="cls-3" d="M566.69,88.6h14c1.6,0,2.9,1.3,2.9,2.9v43h28.7c1.6,0,2.9,1.3,2.9,2.9h0v10c0,1.6-1.3,2.9-2.9,2.9h-42.7c-3.2,0-5.8-2.6-5.8-5.8v-53c0-1.6,1.3-2.9,2.9-2.9"/>
    <path class="cls-3" d="M691.78,147.3v-55.8c0-1.6,1.3-2.9,2.9-2.9h14c1.6,0,2.9,1.3,2.9,2.9v55.8c0,1.6-1.3,2.9-2.9,2.9h-14c-1.6,0-2.9-1.3-2.9-2.9h0"/>
    <path class="cls-3" d="M780.69,95.7c5.8,5.4,8.7,13.3,8.7,23.7s-2.9,18.3-8.7,23.7c-5.8,5.5-14,8.2-24.6,8.2s-18.8-2.7-24.6-8.1c-5.8-5.4-8.7-13.4-8.7-23.8s2.9-18.3,8.6-23.8c5.8-5.4,14-8.1,24.6-8.1s18.8,2.7,24.6,8.2M746.39,106.2c-2.2,2.6-3.3,6.1-3.3,10.4v5.7c0,4.4,1.1,7.8,3.3,10.4s5.4,3.9,9.7,3.9,7.5-1.3,9.7-3.9c2.2-2.6,3.4-6,3.4-10.4v-5.7c0-4.4-1.1-7.8-3.4-10.4s-5.5-3.9-9.7-3.9-7.5,1.3-9.7,3.9"/>
    <path class="cls-3" d="M59.18,45.7c-9.3,0-18.6,2.2-26.8,6.6C-2.52,71.1-10.21,124.5,15.18,171.5c19.3,35.8,52.3,57.6,82.3,57.6,9.3,0,18.5-2.2,26.7-6.6,20.1-10.9,31.1-33.1,32.1-58.9,0-3.9-1.2-7.2-5.4-7.4h-.2c-3.9,0-5.9,3.9-6.6,6.1-3.3,11.2-9.9,20.3-19.7,25.6-5.2,2.8-10.9,4.3-16.8,4.3-19.9,0-40.9-16.3-54.4-41.3-17.4-32.3-15.8-66.9,8.2-79.8,5.8-3.2,12.4-4.8,19-4.9,9.1,0,17.9,3.3,24.7,9.4,1.6,1.5,3.8,2.4,6,2.5,3.8,0,6.3-3.1,2.8-6.8-15.6-16.5-35.7-25.6-54.8-25.6"/>
    <path class="cls-2" d="M148.18,88.6h-71.4c-4.8,0-9.1,3-10.8,7.6l-12.9,35.3c-.5,1.3-.5,2.8,0,4.1,1.6,4.3,3.5,8.4,5.7,12.4,3.2,6,7,11.6,11.4,16.7,1,1.2,2.8,1.4,4,.3.4-.3.7-.7.8-1.2l3.8-10.5c.9-2,2.9-3.2,5.1-3.1h31.5c3.7,0,7-2.2,8.3-5.7l3.7-10.1c1.1-3-.4-6.3-3.4-7.4-.7-.2-1.4-.4-2.1-.4h-27.1c-2.4,0-4.4-2-4.4-4.4s0-1,.3-1.5l.9-2.3c.9-2.5,3.3-4.1,5.9-4.1h43.4c3.7,0,7-2.3,8.2-5.8l4.5-12.3c1.1-3-.4-6.3-3.4-7.4-.6-.2-1.3-.3-2-.3"/>
  </g>
  <path class="cls-3" d="M816.39,97.5c0,5.8-4.5,10.3-10.4,10.3s-10.5-4.5-10.5-10.3,4.6-10.2,10.5-10.2,10.4,4.5,10.4,10.2M797.99,97.5c0,4.5,3.4,8.2,7.9,8.2s7.7-3.6,7.7-8.1-3.3-8.2-7.8-8.2-7.9,3.7-7.9,8.2M804.19,102.9h-2.4v-10.2c.9-.2,2.3-.3,3.9-.3s2.8.3,3.5.7c.5.4,1,1.2,1,2.3s-.8,2-2.1,2.4h0c1,.5,1.5,1.2,1.9,2.6.3,1.6.5,2.2.7,2.6h-2.6c-.3-.4-.5-1.3-.8-2.5-.2-1.1-.8-1.7-2.1-1.7h-1.1v4.1h.1ZM804.19,97.1h1.1c1.3,0,2.4-.4,2.4-1.4s-.7-1.6-2.2-1.6-1,0-1.3,0v2.9h0v.1Z"/>
  <g>
    <rect class="cls-5" x="864.89" y="-.05" width="160.9" height="274.8"/>
    <path class="cls-6" d="M887.57,171.04c-.14-.14-.21-.38-.03-.59l2.63-3.01c.14-.17.35-.17.52-.03,1.56,1.25,3.67,2.42,6.16,2.42s3.84-1.14,3.84-2.8c0-1.38-.83-2.25-3.64-2.63l-1.25-.17c-4.78-.66-7.44-2.91-7.44-7.06s3.25-7.2,8.34-7.2c3.12,0,6.03.94,8,2.46.21.14.24.28.07.52l-2.11,3.15c-.14.17-.31.21-.48.1-1.8-1.18-3.53-1.8-5.47-1.8-2.08,0-3.15,1.07-3.15,2.56,0,1.35.97,2.22,3.67,2.6l1.25.17c4.85.66,7.41,2.87,7.41,7.13s-3.15,7.41-9.25,7.41c-3.67,0-7.24-1.45-9.07-3.22"/>
    <path class="cls-6" d="M908.62,150.68c0-.21.14-.35.35-.35h15.1c.21,0,.35.14.35.35v3.7c0,.21-.14.35-.35.35h-10.15c-.14,0-.21.07-.21.21v4.67c0,.14.07.21.21.21h8.45c.21,0,.35.14.35.35v3.67c0,.21-.14.35-.35.35h-8.45c-.14,0-.21.07-.21.21v4.88c0,.14.07.21.21.21h10.15c.21,0,.35.14.35.35v3.7c0,.21-.14.35-.35.35h-15.1c-.21,0-.35-.14-.35-.35v-22.85Z"/>
    <path class="cls-6" d="M940.51,173.88c-.31,0-.42-.1-.52-.35l-4.05-8.62h-3.15c-.14,0-.21.07-.21.21v8.41c0,.21-.14.35-.35.35h-4.4c-.21,0-.35-.14-.35-.35v-22.85c0-.21.14-.35.35-.35h9.38c4.81,0,8,3.01,8,7.31,0,3.01-1.59,5.4-4.19,6.54l4.64,9.28c.1.21,0,.41-.24.41h-4.92ZM940.13,157.64c0-1.77-1.25-2.91-3.19-2.91h-4.15c-.14,0-.21.07-.21.21v5.44c0,.14.07.21.21.21h4.15c1.94,0,3.19-1.14,3.19-2.94"/>
    <path class="cls-6" d="M948.75,150.34h4.4c.19,0,.35.16.35.35v22.85c0,.19-.16.35-.35.35h-4.4c-.19,0-.35-.16-.35-.35v-22.85c0-.19.15-.35.35-.35Z"/>
    <path class="cls-6" d="M957.3,150.68c0-.21.14-.35.35-.35h15.1c.21,0,.35.14.35.35v3.7c0,.21-.14.35-.35.35h-10.15c-.14,0-.21.07-.21.21v4.67c0,.14.07.21.21.21h8.45c.21,0,.35.14.35.35v3.67c0,.21-.14.35-.35.35h-8.45c-.14,0-.21.07-.21.21v4.88c0,.14.07.21.21.21h10.15c.21,0,.35.14.35.35v3.7c0,.21-.14.35-.35.35h-15.1c-.21,0-.35-.14-.35-.35v-22.85Z"/>
    <path class="cls-6" d="M989.99,150.68c.07-.21.21-.35.45-.35h4.36c.24,0,.38.14.45.35l7.96,22.85c.07.21,0,.35-.24.35h-4.5c-.24,0-.38-.1-.45-.35l-1.35-4.12h-8.24l-1.32,4.12c-.07.24-.21.35-.45.35h-4.54c-.24,0-.31-.14-.24-.35l8.1-22.85ZM995.29,165.09l-2.67-8.24h-.1l-2.67,8.24h5.44Z"/>
    <rect class="cls-4" x="902.75" y="167.72" width="8.65" height="38.26" transform="translate(1093.92 -720.22) rotate(90)"/>
    <rect class="cls-1" x="941.01" y="167.72" width="8.65" height="38.26" transform="translate(1132.19 -758.49) rotate(90)"/>
    <rect class="cls-10" x="979.27" y="167.72" width="8.65" height="38.26" transform="translate(1170.45 -796.75) rotate(90)"/>
    <polygon class="cls-6" points="923.1 108.21 945.34 49.51 954.93 74.85 942.82 74.85 934.55 96.68 963.2 96.68 967.57 108.21 923.1 108.21"/>
    <polygon class="cls-6" points="945.33 144.58 1002.73 108.21 967.57 108.21 945.33 144.58"/>
    <polygon class="cls-6" points="945.33 144.58 887.94 108.21 923.1 108.21 945.33 144.58"/>
    <polygon class="cls-8" points="923.1 108.21 945.34 144.58 967.57 108.21 923.1 108.21"/>
    <polygon class="cls-7" points="945.34 49.51 954.93 74.85 942.82 74.85 934.55 96.68 963.2 96.68 967.57 108.21 1002.73 108.21 961.19 11.48 929.48 11.48 887.94 108.21 923.1 108.21 945.34 49.51"/>
    <rect class="cls-9" x="864.89" y="199.82" width="160.9" height="74.93"/>
    <g>
      <g>
        <path class="cls-5" d="M893.36,244.98c-1.03-.17-2.17-.4-3.22-.94,0,0-.25-.15-.25.08v2.11c-.12,1.05.62,1.54,1.54,1.57.7.02-.08.89-.43,1.31-.51.63-.63,1.08-.4,1.37.2.26.37,0,1.03.58-.55.73-.85,1.1-.93,1.31,0,0-.49.76.68,1.12h0c-.3.92-.78,1.09-1.03,1.62-.27.57.6,1.08.53,1.13-1.39.89-2.41,1.93-2.59,2.58-.49,1.41-.76,3.07-1.08,4.46-.1.46-.66.87-1.03.88-1.35.05-2.37,0-3.54,0-.39,0-.22-.29-.22-.29,1.24-2.25,4.07-4.1,3.61-6.89-1.23-7.48-3.4-12.31-4.63-18.85-.47-2.5.47-6.33.79-6.67.25-.27.81.97,1.7.93,0,0,1.39-1.76,2.24-2.17.66-.08,3.13.86,3.13.86.28-.05.67-1.57.8-2.34.61.17,1.66.22,2.38-.1,1.64-.72,1.57-1.29,1.83-1.27.49.05.97,1,1.01,1.61,0,0,0,.62.33.53.97-.25,1.69-1.38,2.07-1.36.4.07.8,1.08.9,1.83,0,0,.07.45.61.24.48-.19.76-.36,1.59-.97.1-.07.26,0,.28.11.44.91.48,1.77,1.02,1.82.47.05.86-.31,1.06-.54.16-.18.64-.64.82-.58s.3,1.14,1.08,1.53c.36.18.62-.09.84-.62.14-.34.48-.74.6-.72s.3.62.76.9c.39.23.85.28.91.02.14-.63.62-1.08.71-.88.14.29.34.43.63.68.35.24.6.29.98.24,1.21-.14,2.03-1.1,1.8-1.22-1.11-.6-1.53-1.81-1.61-2.65.03-.5.04-1.78,1.23-2.28.56-.24,1.49-.23,1.95.17.41.37.67.75.67,1.36,0,.5-.12,1-.56,1.24-.32.18-.89.17-1.22-.08-.3-.23-.42-.67-.67-.84h-.07c-.24.58.15,1.25.48,1.67.68.77,1.76.71,2.1.49h0c1.28-.49,2.34-3.11,2.59-3.72.5-1.23.89-2.59,1.6-3.85.62-1.1,2.16-2.35,4.59-2.35,2.07,0,4.38,1.84,4.52,4.52.12,2.28-.68,3.11-1.55,4.11-.55.63-.62.8-.41.97.66.5.82.59,1.31,1.17,2.05,2.5,2.95,5.42,4.1,8.34.29.71.41,1.53.78,2.17,1.58,2.01,3.1,2.66,3.32,2.93.14.17-.17.22-.18.69,0,.13.29.42.55.44.13,0,.82.11.69.32-.4.66-.63,1.11-.58,1.53.06.49.32-.02.98.05.16.02.22.11.14.25-.37.63-.46.99-.53,1.43-.1.3.18,1,.88.88.07-.01.14.05.12.12-.05.21-.46.39-.64,1-.39,1.33-.15,2.16.98,3.46.46.53.74.52,1.07.94h0c-1.41,1.26-1.2,3.03-1.44,4.06-.07.31-.33.34-.33.34l-4.32.68c-.35.05-.62-.08-.22-.57,1.05-1.27,2.43-2.53,3.17-3.87h0c-.12-.46-.35-.95-.68-1.49-1.41-2.29-2.72-4.42-4.04-6.74-.75-1.33-1.09-1.26-1.09-1.26-3.2-.59-5.22-1.11-7.59-2.64-.17-.05-.16.17-.16.17,0,.61-.08,2.82.17,3.2.77,1.14,2.35,1.3,2.35,1.3,0,0,0,0,0,0,0,0,.24.38-.51,1.02,0,0-.16.1-.09.24.12.3.52.32.85.25.18-.03-.11.51-.69,1.06-.14.13.04.58.24.7.06.03.07.08.03.13-.2.26-1.07.94-1.06,1.42l.17,2.87s0,.09-.04.14c-.07.08-.21.1-.21.1l-4.24,1.06c-.1.02-.24,0-.34-.13-.11-.15.04-.38.04-.38l2.6-3.93.13-.22c.16-.91-.64-1.75-1.16-2.4-.92-1.16-2.31-2.49-2.31-2.49-.78-.67-1.32-3.13-1.51-3.82-.07-.26-.34-.15-.58.07-.57.58-1.05,1.25-1.28,1.66-.2.38-.29,1.37-.24,1.55.08.29.29.75,1.3.74h0c-.09.61-.26.9-.59,1.2,0,0-.18.08-.06.2.32.31.69.53.69.53-.13.42-.33.74-.55,1.02-.64.81.24.65.24.65-.21.55-.36.89-.64,1.37-.72,1.2-.22,2.92-.34,3.79-.03.2-.28.37-.59.41l-4.43.16c-.26,0-.24-.32-.08-.5l3.05-3.73c.24-.33.01-.54-.09-.68,0,0-1.95-2.62-2.58-4.74-.25-.84-.47-1.95-.47-1.95-.66.08-2.46.33-2.33,1.27-.16.43.38,1.91.75,1.92,0,0-.03.07,0,0,0,0,.04.47-.57.66-.71.23-1.42.78-1.32,1.05.1.2.44.32.57.32v.04c-.66.91-1.32.7-1.89,1.17-.2.17-.23.51.43.51h0c-.53.57-.83.48-1.18.66,0,0-.59.22-.48.43.3.57.4.44.18.69-.3.34-.39.4-.84.55-.38.12-.65.33-.65.33-.32.34-.22.64-.43,1.18-.33.84-.85,1.91-1.42,2.62,0,0-.09.14-.23.02l-2.79-2.35c-.25-.2-.11-.52-.11-.52.28-.59.83-.77,1.4-1.12.79-.48,1.53-.93,2.23-1.74.15-.18.22-.57.22-.57.34-2.18,1.01-4.65,1.49-6.76.13-.65-.59-.5-.59-.5-.98.16-1.73.34-2.51.28-.24-.02-.3.08-.5.55-.26.59-.63,1.86-.27,2.33.61.81,1.31.5,1.29.58-.21.8-.89,1.14-1.13,1.34-.31.26-.39.44-.41.56s.04.58.72.47v.07s-.25.57-.88,1.08c-.26.21-.6.46-.72.62-.13.16-.15.53.38.52v.12s-.34.83-.97,1.16c-.21.11-.62.48-.81.86-.43.89-.91,3.28-1.29,3.02-.76-.54-2.61-2.24-2.61-2.24-.21-.17-.24-.32-.24-.32-.09-.43.88-.84,1.22-1.15.54-.5,1.34-.87,1.46-1.93.16-1.52-.35-2.94-.56-3.84-.23-.99-.61-2.82-.54-3.8.02-.18-.12-.21-.12-.21ZM915.92,229.85c-.06.06-.08.14.02.14.9,0,1.96-.48,2.82-1.02.76-.48,1.33-.9,2.16-2.04,0,0,.46.09,2.14,0,1.7-.1,2.83-1.2,2.91-2.77.1-1.91-1.69-3.61-3.7-3.05-1.42.4-1.86,1.42-2.41,2.35-.91,1.53-1.96,4.29-3.84,6.29,0,0-.04.04-.11.1M903.17,230.66c.16-.18.67-.7.82-.58.29.23.3,1.14,1.08,1.53"/>
        <path class="cls-5" d="M890.29,218.21c.89-.76,1.68-1.31,4.78-2.91.3-.15-.29-2.08-.59-3.36-.1-.44-.46-.56-.63-.52-3.97,1.03-7.5,2.9-8.29,2.09-.01-.01,0,0-.01-.01l-3.99-3.02c-.33-.25-.67-.04-.62.38.2,1.56.38,2.46.51,3.4.03.22-.01.33-.16.33-.9,0-1.77.65-2.3,1.58-.75,1.31-1.43,2.5-2.66,3.1-.07.04-.11.12-.07.19.26.5.71.79,1.17.95.5.17.74.06,1.12.25.06.03.09.1.07.17-.03.1-.09.18-.15.3-1.03,1.85.16,4.2-1.6,5.64-.09.07-.06.23.05.25,2.04.35,2.67-1.12,2.92-.85-.61,1.86-.31,2.12-.7,4.49-.09.53-.47,1.22-.13,1.12,2.65-.78,3.14-1.85,3.33-2.04.22-.22.27-.73.87.26.13.21.32.48.42.43.07.01.18-.17.22-.23.51-.74,1.16-1.15,1.88-1.48.04-.02.07-.04.11-.03.92.09,1.69.41,2.75.84.08.03.17,0,.19-.09.46-1.53-.29-2.9-.26-3.1.03-.2.13-.1.5.28.82.82,2.09.87,2.83.68.4-.1.93-.37,1.1-.64.06-.1,0-.21-.11-.23-2.26-.33-2.38-2.64-3.33-4.2-.05-.09-.1-.23-.06-.25l.71.36s3.17.68,3.3.7c.32.05.47-.31.47-.31.02-.1.23-.86.21-1.54,0-.31-.34-.49-.5-.34-.06.06-.12.13-.18.17-.08.06-.18.07-.28.04-.81-.22-1.09-.3-1.96-.66l-1.14-1.82c-.08-.23.11-.32.18-.39ZM887.44,217.25c-.49,0-.9-.42-.9-1s.41-1,.9-1c.57,0,.99.41.99,1s-.41,1-.99,1Z"/>
      </g>
      <path class="cls-5" d="M915.59,213.17c-11.33,1.83-14.98,5.48-13.21,7.41,1.29,1.4,4.91,2.25,5.48,2.17.19,0,.29.09.45.23.1.09.08.17.08.17-1.12.03-5.82-.8-7.35-2.75-2.04-2.61-1.47-10.1,18.54-9.89,1.09.01,3.08.21,5.02.52.82.13.73,1.34-.1,1.35-3.15.03-6.2.35-8.92.79Z"/>
      <g>
        <rect class="cls-5" x="979.5" y="230.67" width="2.65" height="15.75"/>
        <rect class="cls-5" x="985.69" y="235.08" width="2.65" height="11.33"/>
        <path class="cls-5" d="M987.03,230.03c-.48,0-.88.15-1.21.46-.33.3-.49.68-.49,1.14s.16.83.49,1.14c.33.3.73.46,1.21.46s.9-.16,1.22-.48c.32-.32.48-.71.48-1.18,0-.44-.16-.8-.49-1.09-.33-.29-.73-.44-1.21-.44Z"/>
        <polygon class="cls-5" points="996.26 243.49 992.73 235.08 989.97 235.08 994.84 246.42 997.57 246.42 1002.43 235.08 999.89 235.08 996.26 243.49"/>
        <path class="cls-5" d="M1014.42,240.81c0-1.16-.24-2.18-.73-3.07-.49-.88-1.17-1.57-2.04-2.06-.87-.49-1.86-.73-2.96-.73s-2.12.25-3.01.74c-.89.5-1.59,1.19-2.09,2.07-.5.88-.75,1.88-.75,2.98s.26,2.12.77,3c.52.88,1.25,1.57,2.2,2.07.95.5,2.04.74,3.29.74.98,0,1.85-.16,2.63-.47.78-.31,1.42-.77,1.93-1.38l-1.42-1.63c-.81.82-1.83,1.23-3.08,1.23-.98,0-1.79-.24-2.45-.73-.66-.49-1.06-1.15-1.22-1.98h8.89c.03-.34.04-.6.04-.79ZM1005.47,239.84c.13-.83.48-1.5,1.07-2.01.59-.5,1.31-.75,2.15-.75s1.58.25,2.16.76c.58.51.93,1.17,1.04,1.99h-6.43Z"/>
      </g>
      <path class="cls-5" d="M953.52,235.73c-.87-.49-1.85-.73-2.95-.73s-2.11.25-3,.74c-.89.49-1.58,1.18-2.08,2.06-.5.88-.75,1.87-.75,2.97s.26,2.11.77,2.99c.51.88,1.24,1.57,2.19,2.06.94.49,2.04.74,3.28.74.97,0,1.85-.15,2.62-.46.77-.31,1.42-.77,1.92-1.37l-1.42-1.63c-.8.82-1.82,1.23-3.06,1.23-.97,0-1.79-.24-2.44-.73-.66-.49-1.06-1.14-1.22-1.98h8.85c.03-.34.04-.6.04-.78,0-1.15-.24-2.17-.73-3.05-.49-.88-1.16-1.56-2.03-2.05ZM947.36,239.86c.13-.83.48-1.5,1.07-2,.58-.5,1.3-.75,2.14-.75s1.58.25,2.16.76c.58.51.92,1.17,1.04,1.99h-6.4ZM965.22,235c-.83,0-1.58.13-2.24.4-.66.27-1.21.66-1.65,1.18v-1.46h-2.51v11.28h2.64v-5.71c0-1.1.28-1.94.85-2.53.56-.58,1.33-.88,2.3-.88.86,0,1.52.25,1.99.75.46.5.7,1.24.7,2.23v6.13h2.64v-6.47c0-1.63-.43-2.87-1.29-3.7-.86-.83-2-1.25-3.42-1.25ZM975.83,230.54c-.32-.29-.73-.43-1.2-.43s-.88.15-1.2.45c-.32.3-.49.68-.49,1.13s.16.83.49,1.13c.32.3.73.45,1.2.45s.9-.16,1.22-.48c.32-.32.48-.71.48-1.17,0-.44-.16-.8-.49-1.09ZM973.29,246.41h2.64v-11.28h-2.64v11.28Z"/>
    </g>
  </g>
</svg>